<?xml version="1.0" encoding="UTF-8" standalone="no"?>
<!DOCTYPE svg PUBLIC "-//W3C//DTD SVG 1.1//EN"
 "http://www.w3.org/Graphics/SVG/1.1/DTD/svg11.dtd">
<!-- Generated by graphviz version 2.47.0 (20210316.0004)
 -->
<!-- Title: dependencies Pages: 1 -->
<svg width="594pt" height="211pt"
 viewBox="0.00 0.00 594.00 211.00" xmlns="http://www.w3.org/2000/svg" xmlns:xlink="http://www.w3.org/1999/xlink">
<g id="graph0" class="graph" transform="scale(1 1) rotate(0) translate(4 207)">
<title>dependencies</title>
<polygon fill="white" stroke="transparent" points="-4,4 -4,-207 590,-207 590,4 -4,4"/>
<text text-anchor="start" x="272.01" y="-42.4" font-family="sans-serif" font-weight="bold" font-size="14.00">Legend</text>
<polygon fill="#ffffb3" stroke="transparent" points="59,-10 59,-30 79,-30 79,-10 59,-10"/>
<text text-anchor="start" x="82.63" y="-15.4" font-family="sans-serif" font-size="14.00"> &#160;Declarations</text>
<polygon fill="#8dd3c7" stroke="transparent" points="172,-10 172,-30 192,-30 192,-10 172,-10"/>
<text text-anchor="start" x="195.73" y="-15.4" font-family="sans-serif" font-size="14.00"> &#160;Module</text>
<polygon fill="#80b1d3" stroke="transparent" points="258,-10 258,-30 278,-30 278,-10 258,-10"/>
<text text-anchor="start" x="281.78" y="-15.4" font-family="sans-serif" font-size="14.00"> &#160;Bootstrap</text>
<polygon fill="#fdb462" stroke="transparent" points="355,-10 355,-30 375,-30 375,-10 355,-10"/>
<text text-anchor="start" x="378.67" y="-15.4" font-family="sans-serif" font-size="14.00"> &#160;Providers</text>
<polygon fill="#fb8072" stroke="transparent" points="451,-10 451,-30 471,-30 471,-10 451,-10"/>
<text text-anchor="start" x="474.73" y="-15.4" font-family="sans-serif" font-size="14.00"> &#160;Exports</text>
<g id="clust1" class="cluster">
<title>cluster_VisitorModule</title>
<polygon fill="none" stroke="black" stroke-dasharray="1,5" points="8,-70 8,-195 578,-195 578,-70 8,-70"/>
</g>
<g id="clust2" class="cluster">
<title>cluster_VisitorModule_declarations</title>
<polygon fill="none" stroke="black" points="300,-78 300,-130 570,-130 570,-78 300,-78"/>
</g>
<g id="clust5" class="cluster">
<title>cluster_VisitorModule_imports</title>
<polygon fill="none" stroke="black" points="16,-78 16,-130 292,-130 292,-78 16,-78"/>
</g>
<!-- HomeComponent -->
<g id="node1" class="node">
<title>HomeComponent</title>
<polygon fill="#ffffb3" stroke="black" points="561.55,-122 446.45,-122 446.45,-86 561.55,-86 561.55,-122"/>
<text text-anchor="middle" x="504" y="-99.8" font-family="Times,serif" font-size="14.00">HomeComponent</text>
</g>
<!-- VisitorModule -->
<g id="node3" class="node">
<title>VisitorModule</title>
<polygon fill="#8dd3c7" stroke="black" points="350.43,-187 347.43,-191 326.43,-191 323.43,-187 251.57,-187 251.57,-151 350.43,-151 350.43,-187"/>
<text text-anchor="middle" x="301" y="-164.8" font-family="Times,serif" font-size="14.00">VisitorModule</text>
</g>
<!-- HomeComponent&#45;&gt;VisitorModule -->
<g id="edge1" class="edge">
<title>HomeComponent&#45;&gt;VisitorModule</title>
<path fill="none" stroke="black" d="M504,-122.11C504,-141.34 504,-169 504,-169 504,-169 360.4,-169 360.4,-169"/>
<polygon fill="black" stroke="black" points="360.4,-165.5 350.4,-169 360.4,-172.5 360.4,-165.5"/>
</g>
<!-- VisitorComponent -->
<g id="node2" class="node">
<title>VisitorComponent</title>
<polygon fill="#ffffb3" stroke="black" points="428.22,-122 307.78,-122 307.78,-86 428.22,-86 428.22,-122"/>
<text text-anchor="middle" x="368" y="-99.8" font-family="Times,serif" font-size="14.00">VisitorComponent</text>
</g>
<!-- VisitorComponent&#45;&gt;VisitorModule -->
<g id="edge2" class="edge">
<title>VisitorComponent&#45;&gt;VisitorModule</title>
<path fill="none" stroke="black" d="M329.05,-122.11C329.05,-122.11 329.05,-140.99 329.05,-140.99"/>
<polygon fill="black" stroke="black" points="325.55,-140.99 329.05,-150.99 332.55,-140.99 325.55,-140.99"/>
</g>
<!-- ThemeModule -->
<g id="node4" class="node">
<title>ThemeModule</title>
<polygon fill="#8dd3c7" stroke="black" points="284.42,-122 281.42,-126 260.42,-126 257.42,-122 185.58,-122 185.58,-86 284.42,-86 284.42,-122"/>
<text text-anchor="middle" x="235" y="-99.8" font-family="Times,serif" font-size="14.00">ThemeModule</text>
</g>
<!-- ThemeModule&#45;&gt;VisitorModule -->
<g id="edge3" class="edge">
<title>ThemeModule&#45;&gt;VisitorModule</title>
<path fill="none" stroke="black" d="M268,-122.11C268,-122.11 268,-140.99 268,-140.99"/>
<polygon fill="black" stroke="black" points="264.5,-140.99 268,-150.99 271.5,-140.99 264.5,-140.99"/>
</g>
<!-- VisitorRoutingModule -->
<g id="node5" class="node">
<title>VisitorRoutingModule</title>
<polygon fill="#8dd3c7" stroke="black" points="167.55,-122 164.55,-126 143.55,-126 140.55,-122 24.45,-122 24.45,-86 167.55,-86 167.55,-122"/>
<text text-anchor="middle" x="96" y="-99.8" font-family="Times,serif" font-size="14.00">VisitorRoutingModule</text>
</g>
<!-- VisitorRoutingModule&#45;&gt;VisitorModule -->
<g id="edge4" class="edge">
<title>VisitorRoutingModule&#45;&gt;VisitorModule</title>
<path fill="none" stroke="black" d="M96,-122.11C96,-141.34 96,-169 96,-169 96,-169 241.64,-169 241.64,-169"/>
<polygon fill="black" stroke="black" points="241.64,-172.5 251.64,-169 241.64,-165.5 241.64,-172.5"/>
</g>
</g>
</svg>
