<?xml version="1.0" encoding="UTF-8" standalone="no"?>
<!DOCTYPE svg PUBLIC "-//W3C//DTD SVG 1.1//EN"
 "http://www.w3.org/Graphics/SVG/1.1/DTD/svg11.dtd">
<!-- Generated by graphviz version 2.47.0 (20210316.0004)
 -->
<!-- Title: dependencies Pages: 1 -->
<svg width="878pt" height="211pt"
 viewBox="0.00 0.00 878.00 211.00" xmlns="http://www.w3.org/2000/svg" xmlns:xlink="http://www.w3.org/1999/xlink">
<g id="graph0" class="graph" transform="scale(1 1) rotate(0) translate(4 207)">
<title>dependencies</title>
<polygon fill="white" stroke="transparent" points="-4,4 -4,-207 874,-207 874,4 -4,4"/>
<text text-anchor="start" x="414.01" y="-42.4" font-family="sans-serif" font-weight="bold" font-size="14.00">Legend</text>
<polygon fill="#ffffb3" stroke="transparent" points="201,-10 201,-30 221,-30 221,-10 201,-10"/>
<text text-anchor="start" x="224.63" y="-15.4" font-family="sans-serif" font-size="14.00"> &#160;Declarations</text>
<polygon fill="#8dd3c7" stroke="transparent" points="314,-10 314,-30 334,-30 334,-10 314,-10"/>
<text text-anchor="start" x="337.73" y="-15.4" font-family="sans-serif" font-size="14.00"> &#160;Module</text>
<polygon fill="#80b1d3" stroke="transparent" points="400,-10 400,-30 420,-30 420,-10 400,-10"/>
<text text-anchor="start" x="423.78" y="-15.4" font-family="sans-serif" font-size="14.00"> &#160;Bootstrap</text>
<polygon fill="#fdb462" stroke="transparent" points="497,-10 497,-30 517,-30 517,-10 497,-10"/>
<text text-anchor="start" x="520.67" y="-15.4" font-family="sans-serif" font-size="14.00"> &#160;Providers</text>
<polygon fill="#fb8072" stroke="transparent" points="593,-10 593,-30 613,-30 613,-10 593,-10"/>
<text text-anchor="start" x="616.73" y="-15.4" font-family="sans-serif" font-size="14.00"> &#160;Exports</text>
<g id="clust1" class="cluster">
<title>cluster_AuthModule</title>
<polygon fill="none" stroke="black" stroke-dasharray="1,5" points="8,-70 8,-195 862,-195 862,-70 8,-70"/>
</g>
<g id="clust2" class="cluster">
<title>cluster_AuthModule_declarations</title>
<polygon fill="none" stroke="black" points="447,-78 447,-130 854,-130 854,-78 447,-78"/>
</g>
<g id="clust9" class="cluster">
<title>cluster_AuthModule_providers</title>
<polygon fill="none" stroke="black" points="289,-78 289,-130 439,-130 439,-78 289,-78"/>
</g>
<g id="clust6" class="cluster">
<title>cluster_AuthModule_imports</title>
<polygon fill="none" stroke="black" points="16,-78 16,-130 281,-130 281,-78 16,-78"/>
</g>
<!-- AuthComponent -->
<g id="node1" class="node">
<title>AuthComponent</title>
<polygon fill="#ffffb3" stroke="black" points="845.83,-122 736.17,-122 736.17,-86 845.83,-86 845.83,-122"/>
<text text-anchor="middle" x="791" y="-99.8" font-family="Times,serif" font-size="14.00">AuthComponent</text>
</g>
<!-- AuthModule -->
<g id="node4" class="node">
<title>AuthModule</title>
<polygon fill="#8dd3c7" stroke="black" points="481.55,-187 478.55,-191 457.55,-191 454.55,-187 394.45,-187 394.45,-151 481.55,-151 481.55,-187"/>
<text text-anchor="middle" x="438" y="-164.8" font-family="Times,serif" font-size="14.00">AuthModule</text>
</g>
<!-- AuthComponent&#45;&gt;AuthModule -->
<g id="edge1" class="edge">
<title>AuthComponent&#45;&gt;AuthModule</title>
<path fill="none" stroke="black" d="M791,-122.28C791,-143.32 791,-175 791,-175 791,-175 491.64,-175 491.64,-175"/>
<polygon fill="black" stroke="black" points="491.64,-171.5 481.64,-175 491.64,-178.5 491.64,-171.5"/>
</g>
<!-- CadastroComponent -->
<g id="node2" class="node">
<title>CadastroComponent</title>
<polygon fill="#ffffb3" stroke="black" points="718.59,-122 587.41,-122 587.41,-86 718.59,-86 718.59,-122"/>
<text text-anchor="middle" x="653" y="-99.8" font-family="Times,serif" font-size="14.00">CadastroComponent</text>
</g>
<!-- CadastroComponent&#45;&gt;AuthModule -->
<g id="edge2" class="edge">
<title>CadastroComponent&#45;&gt;AuthModule</title>
<path fill="none" stroke="black" d="M653,-122.02C653,-139.37 653,-163 653,-163 653,-163 491.77,-163 491.77,-163"/>
<polygon fill="black" stroke="black" points="491.77,-159.5 481.77,-163 491.77,-166.5 491.77,-159.5"/>
</g>
<!-- LoginComponent -->
<g id="node3" class="node">
<title>LoginComponent</title>
<polygon fill="#ffffb3" stroke="black" points="569.28,-122 454.72,-122 454.72,-86 569.28,-86 569.28,-122"/>
<text text-anchor="middle" x="512" y="-99.8" font-family="Times,serif" font-size="14.00">LoginComponent</text>
</g>
<!-- LoginComponent&#45;&gt;AuthModule -->
<g id="edge3" class="edge">
<title>LoginComponent&#45;&gt;AuthModule</title>
<path fill="none" stroke="black" d="M468.19,-122.11C468.19,-122.11 468.19,-140.99 468.19,-140.99"/>
<polygon fill="black" stroke="black" points="464.69,-140.99 468.19,-150.99 471.69,-140.99 464.69,-140.99"/>
</g>
<!-- AuthRoutingModule -->
<g id="node5" class="node">
<title>AuthRoutingModule</title>
<polygon fill="#8dd3c7" stroke="black" points="273.17,-122 270.17,-126 249.17,-126 246.17,-122 140.83,-122 140.83,-86 273.17,-86 273.17,-122"/>
<text text-anchor="middle" x="207" y="-99.8" font-family="Times,serif" font-size="14.00">AuthRoutingModule</text>
</g>
<!-- AuthRoutingModule&#45;&gt;AuthModule -->
<g id="edge4" class="edge">
<title>AuthRoutingModule&#45;&gt;AuthModule</title>
<path fill="none" stroke="black" d="M207,-122.02C207,-139.37 207,-163 207,-163 207,-163 384.28,-163 384.28,-163"/>
<polygon fill="black" stroke="black" points="384.28,-166.5 394.28,-163 384.28,-159.5 384.28,-166.5"/>
</g>
<!-- ThemeModule -->
<g id="node6" class="node">
<title>ThemeModule</title>
<polygon fill="#8dd3c7" stroke="black" points="122.42,-122 119.42,-126 98.42,-126 95.42,-122 23.58,-122 23.58,-86 122.42,-86 122.42,-122"/>
<text text-anchor="middle" x="73" y="-99.8" font-family="Times,serif" font-size="14.00">ThemeModule</text>
</g>
<!-- ThemeModule&#45;&gt;AuthModule -->
<g id="edge5" class="edge">
<title>ThemeModule&#45;&gt;AuthModule</title>
<path fill="none" stroke="black" d="M73,-122.28C73,-143.32 73,-175 73,-175 73,-175 384.34,-175 384.34,-175"/>
<polygon fill="black" stroke="black" points="384.34,-178.5 394.34,-175 384.33,-171.5 384.34,-178.5"/>
</g>
<!-- SignupService -->
<g id="node7" class="node">
<title>SignupService</title>
<ellipse fill="#fdb462" stroke="black" cx="364" cy="-104" rx="67.22" ry="18"/>
<text text-anchor="middle" x="364" y="-99.8" font-family="Times,serif" font-size="14.00">SignupService</text>
</g>
<!-- SignupService&#45;&gt;AuthModule -->
<g id="edge6" class="edge">
<title>SignupService&#45;&gt;AuthModule</title>
<path fill="none" stroke="black" d="M412.79,-116.53C412.79,-116.53 412.79,-140.85 412.79,-140.85"/>
<polygon fill="black" stroke="black" points="409.29,-140.85 412.79,-150.85 416.29,-140.85 409.29,-140.85"/>
</g>
</g>
</svg>
